<svg xmlns="http://www.w3.org/2000/svg" width="512" height="512" viewBox="0 0 512 512" version="1.1">
  <path d="M 166 30 L 166 40 256 40 L 346 40 346 30 L 346 20 256 20 L 166 20 166 30 M 70 239 L 70 264 90 264 L 110 264 110 239 L 110 214 90 214 L 70 214 70 239 M 402 239 L 402 264 422 264 L 442 264 442 239 L 442 214 422 214 L 402 214 402 239" stroke="none" fill="#d2d916" fill-rule="evenodd"/>
  <path d="M 148.923 2.923 C 146.212 5.634, 146 6.390, 146 13.350 L 146 20.853 140.750 23.275 C 126.165 30.004, 112.030 47.399, 100.954 72.249 L 97.500 79.998 70 80.011 C 40.229 80.025, 37.137 80.422, 26.560 85.595 C 15.033 91.232, 4.025 105.234, 1.085 118 C 0.490 120.585, 0.038 135.956, 0.024 154.115 C 0.001 184.055, 0.104 185.863, 1.966 188.230 C 3.047 189.605, 5.297 191.295, 6.966 191.986 L 10 193.243 10.024 331.371 C 10.041 423.043, 10.397 471.013, 11.085 474 C 15.009 491.037, 29.804 505.925, 47.500 510.643 C 51.589 511.733, 89.566 511.974, 256 511.964 C 392.826 511.955, 460.974 511.612, 464 510.915 C 476.521 508.031, 490.628 497.068, 496.309 485.806 C 502.261 474.007, 501.975 481.779, 501.988 331.371 L 502 193.243 505.061 191.975 C 506.744 191.277, 509.219 189.268, 510.561 187.509 L 513 184.311 513 152.097 C 513 134.017, 512.617 120.119, 512.128 120.421 C 511.648 120.718, 511.001 119.395, 510.691 117.481 C 510.380 115.567, 508.650 111.004, 506.846 107.340 C 500.786 95.029, 487.122 84.107, 474 81.085 C 471.511 80.512, 457.210 80.026, 442 79.998 L 414.500 79.947 409.030 68.342 C 398.453 45.902, 385.815 30.480, 372.719 24.033 L 366 20.725 366 13.286 C 366 6.396, 365.784 5.630, 363.077 2.923 L 360.154 -0 256 -0 L 151.846 0 148.923 2.923 M 166 30 L 166 40 256 40 L 346 40 346 30 L 346 20 256 20 L 166 20 166 30 M 140.416 48.646 C 134.661 54.471, 129.885 61.351, 123.924 72.403 L 119.826 80 256 80 L 392.174 80 388.076 72.403 C 382.115 61.351, 377.339 54.471, 371.584 48.646 L 366.500 43.500 365.980 49.354 C 365.552 54.165, 364.963 55.635, 362.674 57.604 L 359.888 60 256 60 L 152.112 60 149.326 57.604 C 147.037 55.635, 146.448 54.165, 146.020 49.354 L 145.500 43.500 140.416 48.646 M 40.332 101.851 C 30.906 105.109, 24.348 111.872, 21.527 121.243 L 20.192 125.681 52.190 141.590 C 85.261 158.034, 87 159.203, 87 165 C 87 170.075, 82.113 175, 77.076 175 C 75.205 175, 56.886 166.486, 33.250 154.631 L 20 147.986 20 161.755 L 20 175.525 38.507 184.763 L 57.014 194 89.557 194 C 124.863 194, 126.410 194.216, 128.805 199.472 C 129.543 201.091, 130.006 207.335, 130.015 215.797 L 130.031 229.500 193.028 260.180 L 256.025 290.861 319.012 260.185 L 382 229.510 382 215.705 C 382 200.566, 382.874 197.290, 387.472 195.195 C 389.332 194.347, 399.496 194, 422.457 194 L 454.819 194 473.409 184.858 L 492 175.716 492 161.928 L 492 148.140 464.632 161.570 C 449.579 168.957, 436.325 175, 435.179 175 C 429.893 175, 425 170.192, 425 165 C 425 159.135, 426.668 158.017, 459.841 141.656 L 491.863 125.863 490.500 121.334 C 488.633 115.131, 484.757 109.561, 479.817 105.982 C 470.996 99.592, 486.246 99.997, 255.568 100.033 C 56.545 100.064, 45.228 100.159, 40.332 101.851 M 0.448 153.500 C 0.447 171.650, 0.582 179.216, 0.748 170.314 C 0.913 161.411, 0.914 146.561, 0.749 137.314 C 0.583 128.066, 0.448 135.350, 0.448 153.500 M 155.110 193.396 C 152.278 194.965, 150.085 198.597, 150.035 201.800 C 149.944 207.706, 151.642 208.888, 185.859 226.750 C 222.422 245.836, 223.846 246.308, 229.077 241.077 C 233.009 237.145, 233.075 232.179, 229.250 228.096 C 225.855 224.472, 163.430 191.985, 159.957 192.035 C 158.606 192.055, 156.425 192.667, 155.110 193.396 M 318 208.438 C 285.115 225.576, 283.017 227.062, 283.005 233.234 C 283.002 234.844, 284.192 237.303, 285.898 239.211 C 290.974 244.893, 292.567 244.389, 327.834 225.956 C 359.995 209.145, 362 207.745, 362 202.097 C 362 196.798, 357.134 191.986, 351.800 192.011 C 350.535 192.017, 335.325 199.409, 318 208.438 M 30.236 336.314 L 30.500 469.500 33.290 475.182 C 36.451 481.619, 41.296 486.316, 47.949 489.394 L 52.500 491.500 256 491.500 L 459.500 491.500 464.051 489.394 C 470.704 486.316, 475.549 481.619, 478.710 475.182 L 481.500 469.500 481.764 336.310 L 482.029 203.119 472.040 207.810 L 462.051 212.500 462.025 244.300 C 461.998 278.794, 461.766 280.419, 456.528 282.805 C 452.414 284.680, 390.820 284.475, 387.145 282.575 C 382.895 280.377, 382 277.137, 382 263.953 C 382 257.379, 381.854 252, 381.675 252 C 381.497 252, 353.709 265.499, 319.925 281.998 C 286.141 298.497, 257.420 311.997, 256.101 311.998 C 254.781 311.999, 226.431 298.682, 193.101 282.405 C 159.770 266.128, 131.938 252.580, 131.250 252.298 C 130.290 251.905, 130 254.611, 130 263.943 C 130 277.330, 129.003 280.766, 124.528 282.805 C 122.670 283.652, 112.607 284, 90 284 C 67.393 284, 57.330 283.652, 55.472 282.805 C 50.228 280.416, 50 278.808, 50 244.223 L 50 212.347 39.986 207.737 L 29.971 203.127 30.236 336.314 M 70 239 L 70 264 90 264 L 110 264 110 239 L 110 214 90 214 L 70 214 70 239 M 402 239 L 402 264 422 264 L 442 264 442 239 L 442 214 422 214 L 402 214 402 239 M 252.775 242.559 C 247.067 245.657, 246.153 253.307, 250.923 258.077 C 254.713 261.867, 259.622 262.031, 263.809 258.508 C 269.063 254.086, 268.177 245.694, 262.125 242.565 C 258.412 240.644, 256.305 240.643, 252.775 242.559 M 447.110 361.396 C 442.368 364.024, 442.073 365.817, 442.035 392.300 C 442.007 411.862, 442.301 417.681, 443.425 419.855 C 446.867 426.510, 457.133 426.510, 460.575 419.855 C 462.460 416.209, 462.658 369.538, 460.805 365.472 C 458.616 360.666, 451.986 358.693, 447.110 361.396 M 55.110 366.396 C 50.368 369.024, 50.073 370.817, 50.035 397.300 C 50.007 416.862, 50.301 422.681, 51.425 424.855 C 54.867 431.510, 65.133 431.510, 68.575 424.855 C 70.460 421.209, 70.658 374.538, 68.805 370.472 C 66.616 365.666, 59.986 363.693, 55.110 366.396 M 441.388 447.980 C 438.407 449.184, 435 453.827, 435 456.685 C 435 464.672, 444.745 469.997, 450.633 465.228 C 456.017 460.866, 456.388 455.188, 451.600 450.400 C 448.163 446.963, 445.479 446.327, 441.388 447.980 M 66.110 451.396 C 60.210 454.666, 59.427 461.627, 64.400 466.600 C 69.391 471.591, 76.516 470.771, 79.575 464.855 C 84.241 455.831, 74.920 446.513, 66.110 451.396 M 110.110 453.381 C 103.293 457.200, 103.670 467.964, 110.723 470.885 C 112.779 471.737, 127.823 471.978, 166.357 471.776 L 219.174 471.500 221.587 468.694 C 224.860 464.889, 224.860 459.111, 221.587 455.306 L 219.174 452.500 165.837 452.271 C 122.810 452.087, 112.038 452.301, 110.110 453.381 M 251.923 454.923 C 248.087 458.759, 247.872 464.577, 251.413 468.694 C 253.417 471.024, 254.620 471.500, 258.500 471.500 C 262.380 471.500, 263.583 471.024, 265.587 468.694 C 271.097 462.288, 266.729 452, 258.500 452 C 255.795 452, 254.087 452.759, 251.923 454.923 M 298.357 452.992 C 292.783 455.241, 291.183 463.775, 295.413 468.694 L 297.826 471.500 350.643 471.776 C 389.177 471.978, 404.221 471.737, 406.277 470.885 C 409.291 469.637, 412 465.431, 412 462 C 412 458.694, 409.394 454.501, 406.528 453.195 C 403.401 451.770, 301.857 451.579, 298.357 452.992" stroke="none" fill="#000000" fill-rule="evenodd"/>
  <path d="M 40.332 101.851 C 30.906 105.109, 24.348 111.872, 21.527 121.243 L 20.192 125.681 52.190 141.590 C 85.261 158.034, 87 159.203, 87 165 C 87 170.075, 82.113 175, 77.076 175 C 75.205 175, 56.886 166.486, 33.250 154.631 L 20 147.986 20 161.755 L 20 175.525 38.507 184.763 L 57.014 194 89.557 194 C 124.863 194, 126.410 194.216, 128.805 199.472 C 129.543 201.091, 130.006 207.335, 130.015 215.797 L 130.031 229.500 193.028 260.180 L 256.025 290.861 319.012 260.185 L 382 229.510 382 215.705 C 382 200.566, 382.874 197.290, 387.472 195.195 C 389.332 194.347, 399.496 194, 422.457 194 L 454.819 194 473.409 184.858 L 492 175.716 492 161.928 L 492 148.140 464.632 161.570 C 449.579 168.957, 436.325 175, 435.179 175 C 429.893 175, 425 170.192, 425 165 C 425 159.135, 426.668 158.017, 459.841 141.656 L 491.863 125.863 490.500 121.334 C 488.633 115.131, 484.757 109.561, 479.817 105.982 C 470.996 99.592, 486.246 99.997, 255.568 100.033 C 56.545 100.064, 45.228 100.159, 40.332 101.851 M 155.110 193.396 C 152.278 194.965, 150.085 198.597, 150.035 201.800 C 149.944 207.706, 151.642 208.888, 185.859 226.750 C 222.422 245.836, 223.846 246.308, 229.077 241.077 C 233.009 237.145, 233.075 232.179, 229.250 228.096 C 225.855 224.472, 163.430 191.985, 159.957 192.035 C 158.606 192.055, 156.425 192.667, 155.110 193.396 M 318 208.438 C 285.115 225.576, 283.017 227.062, 283.005 233.234 C 283.002 234.844, 284.192 237.303, 285.898 239.211 C 290.974 244.893, 292.567 244.389, 327.834 225.956 C 359.995 209.145, 362 207.745, 362 202.097 C 362 196.798, 357.134 191.986, 351.800 192.011 C 350.535 192.017, 335.325 199.409, 318 208.438 M 252.775 242.559 C 247.067 245.657, 246.153 253.307, 250.923 258.077 C 254.713 261.867, 259.622 262.031, 263.809 258.508 C 269.063 254.086, 268.177 245.694, 262.125 242.565 C 258.412 240.644, 256.305 240.643, 252.775 242.559" stroke="none" fill="#20873c" fill-rule="evenodd"/>
  <path d="M 30.236 336.314 L 30.500 469.500 33.290 475.182 C 36.451 481.619, 41.296 486.316, 47.949 489.394 L 52.500 491.500 256 491.500 L 459.500 491.500 464.051 489.394 C 470.704 486.316, 475.549 481.619, 478.710 475.182 L 481.500 469.500 481.764 336.310 L 482.029 203.119 472.040 207.810 L 462.051 212.500 462.025 244.300 C 461.998 278.794, 461.766 280.419, 456.528 282.805 C 452.414 284.680, 390.820 284.475, 387.145 282.575 C 382.895 280.377, 382 277.137, 382 263.953 C 382 257.379, 381.854 252, 381.675 252 C 381.497 252, 353.709 265.499, 319.925 281.998 C 286.141 298.497, 257.420 311.997, 256.101 311.998 C 254.781 311.999, 226.431 298.682, 193.101 282.405 C 159.770 266.128, 131.938 252.580, 131.250 252.298 C 130.290 251.905, 130 254.611, 130 263.943 C 130 277.330, 129.003 280.766, 124.528 282.805 C 122.670 283.652, 112.607 284, 90 284 C 67.393 284, 57.330 283.652, 55.472 282.805 C 50.228 280.416, 50 278.808, 50 244.223 L 50 212.347 39.986 207.737 L 29.971 203.127 30.236 336.314 M 447.110 361.396 C 442.368 364.024, 442.073 365.817, 442.035 392.300 C 442.007 411.862, 442.301 417.681, 443.425 419.855 C 446.867 426.510, 457.133 426.510, 460.575 419.855 C 462.460 416.209, 462.658 369.538, 460.805 365.472 C 458.616 360.666, 451.986 358.693, 447.110 361.396 M 55.110 366.396 C 50.368 369.024, 50.073 370.817, 50.035 397.300 C 50.007 416.862, 50.301 422.681, 51.425 424.855 C 54.867 431.510, 65.133 431.510, 68.575 424.855 C 70.460 421.209, 70.658 374.538, 68.805 370.472 C 66.616 365.666, 59.986 363.693, 55.110 366.396 M 441.388 447.980 C 438.407 449.184, 435 453.827, 435 456.685 C 435 464.672, 444.745 469.997, 450.633 465.228 C 456.017 460.866, 456.388 455.188, 451.600 450.400 C 448.163 446.963, 445.479 446.327, 441.388 447.980 M 66.110 451.396 C 60.210 454.666, 59.427 461.627, 64.400 466.600 C 69.391 471.591, 76.516 470.771, 79.575 464.855 C 84.241 455.831, 74.920 446.513, 66.110 451.396 M 110.110 453.381 C 103.293 457.200, 103.670 467.964, 110.723 470.885 C 112.779 471.737, 127.823 471.978, 166.357 471.776 L 219.174 471.500 221.587 468.694 C 224.860 464.889, 224.860 459.111, 221.587 455.306 L 219.174 452.500 165.837 452.271 C 122.810 452.087, 112.038 452.301, 110.110 453.381 M 251.923 454.923 C 248.087 458.759, 247.872 464.577, 251.413 468.694 C 253.417 471.024, 254.620 471.500, 258.500 471.500 C 262.380 471.500, 263.583 471.024, 265.587 468.694 C 271.097 462.288, 266.729 452, 258.500 452 C 255.795 452, 254.087 452.759, 251.923 454.923 M 298.357 452.992 C 292.783 455.241, 291.183 463.775, 295.413 468.694 L 297.826 471.500 350.643 471.776 C 389.177 471.978, 404.221 471.737, 406.277 470.885 C 409.291 469.637, 412 465.431, 412 462 C 412 458.694, 409.394 454.501, 406.528 453.195 C 403.401 451.770, 301.857 451.579, 298.357 452.992" stroke="none" fill="#82827d" fill-rule="evenodd"/>
</svg>